{
    "asset" : {
        "generator" : "Khronos glTF Blender I/O v1.5.17",
        "version" : "2.0"
    },
    "scene" : 0,
    "scenes" : [
        {
            "extras" : {
                "pbr_materials" : {
                    "enabled" : 1,
                    "category" : 1,
                    "category_node" : 1
                },
                "thumbs_mats_dielectrics" : 27,
                "thumbs_mats_metals" : 0,
                "thumbs_tex" : 10,
                "thumbs_mats_dielectrics_node" : 27,
                "thumbs_mats_metals_node" : 6,
                "glTF2ExportSettings" : {
                    "export_apply" : 1,
                    "export_colors" : 1,
                    "export_copyright" : "",
                    "export_extras" : 1,
                    "export_format" : "GLTF_SEPARATE",
                    "export_image_format" : "AUTO",
                    "export_materials" : "EXPORT",
                    "export_texture_dir" : "test"
                }
            },
            "name" : "Scene",
            "nodes" : [
                0,
                1,
                2,
                3,
                4,
                5
            ]
        }
    ],
    "nodes" : [
        {
            "mesh" : 0,
            "name" : "\u30e2\u30f3\u30ad\u30fc"
        },
        {
            "mesh" : 1,
            "name" : "\u30e2\u30f3\u30ad\u30fc.001"
        },
        {
            "name" : "Light.001",
            "rotation" : [
                0.16907575726509094,
                0.7558803558349609,
                -0.27217137813568115,
                0.570947527885437
            ],
            "translation" : [
                4.076245307922363,
                5.903861999511719,
                -1.0054539442062378
            ]
        },
        {
            "name" : "Camera.001",
            "rotation" : [
                0.483536034822464,
                0.33687159419059753,
                -0.20870360732078552,
                0.7804827094078064
            ],
            "translation" : [
                7.358891487121582,
                4.958309173583984,
                6.925790786743164
            ]
        },
        {
            "name" : "Light",
            "rotation" : [
                0.16907575726509094,
                0.7558803558349609,
                -0.27217137813568115,
                0.570947527885437
            ],
            "translation" : [
                4.076245307922363,
                5.903861999511719,
                -1.0054539442062378
            ]
        },
        {
            "name" : "Camera",
            "rotation" : [
                0.483536034822464,
                0.33687159419059753,
                -0.20870360732078552,
                0.7804827094078064
            ],
            "translation" : [
                7.358891487121582,
                4.958309173583984,
                6.925790786743164
            ]
        }
    ],
    "materials" : [
        {
            "doubleSided" : true,
            "name" : "\u30de\u30c6\u30ea\u30a2\u30eb",
            "pbrMetallicRoughness" : {
                "baseColorFactor" : [
                    0.9729999899864197,
                    0.5389999747276306,
                    0.10899999737739563,
                    1
                ],
                "metallicRoughnessTexture" : {
                    "index" : 0
                },
                "roughnessFactor" : 0.10000000149011612
            }
        },
        {
            "doubleSided" : true,
            "name" : "\u30de\u30c6\u30ea\u30a2\u30eb.001",
            "pbrMetallicRoughness" : {
                "baseColorFactor" : [
                    0.9729999899864197,
                    0.5389999747276306,
                    0.10899999737739563,
                    1
                ],
                "metallicRoughnessTexture" : {
                    "index" : 1
                },
                "roughnessFactor" : 0.10000000149011612
            }
        }
    ],
    "meshes" : [
        {
            "name" : "\u30e2\u30f3\u30ad\u30fc",
            "primitives" : [
                {
                    "attributes" : {
                        "POSITION" : 0,
                        "NORMAL" : 1,
                        "TEXCOORD_0" : 2
                    },
                    "indices" : 3,
                    "material" : 0
                }
            ]
        },
        {
            "name" : "\u30e2\u30f3\u30ad\u30fc.001",
            "primitives" : [
                {
                    "attributes" : {
                        "POSITION" : 4,
                        "NORMAL" : 5,
                        "TEXCOORD_0" : 6
                    },
                    "indices" : 7,
                    "material" : 1
                }
            ]
        }
    ],
    "textures" : [
        {
            "sampler" : 0,
            "source" : 0
        },
        {
            "sampler" : 0,
            "source" : 0
        }
    ],
    "images" : [
        {
            "mimeType" : "image/png",
            "name" : "RustTexture",
            "uri" : "test/RustTexture.png"
        }
    ],
    "accessors" : [
        {
            "bufferView" : 0,
            "componentType" : 5126,
            "count" : 1966,
            "max" : [
                1.3671875,
                0.984375,
                0.8515625
            ],
            "min" : [
                -1.3671875,
                -0.984375,
                -0.8515625
            ],
            "type" : "VEC3"
        },
        {
            "bufferView" : 1,
            "componentType" : 5126,
            "count" : 1966,
            "type" : "VEC3"
        },
        {
            "bufferView" : 2,
            "componentType" : 5126,
            "count" : 1966,
            "type" : "VEC2"
        },
        {
            "bufferView" : 3,
            "componentType" : 5123,
            "count" : 2904,
            "type" : "SCALAR"
        },
        {
            "bufferView" : 4,
            "componentType" : 5126,
            "count" : 1977,
            "max" : [
                1.3671875,
                0.984375,
                0.8515625
            ],
            "min" : [
                -1.3671875,
                -0.984375,
                -0.8515625
            ],
            "type" : "VEC3"
        },
        {
            "bufferView" : 5,
            "componentType" : 5126,
            "count" : 1977,
            "type" : "VEC3"
        },
        {
            "bufferView" : 6,
            "componentType" : 5126,
            "count" : 1977,
            "type" : "VEC2"
        },
        {
            "bufferView" : 7,
            "componentType" : 5123,
            "count" : 2904,
            "type" : "SCALAR"
        }
    ],
    "bufferViews" : [
        {
            "buffer" : 0,
            "byteLength" : 23592,
            "byteOffset" : 0
        },
        {
            "buffer" : 0,
            "byteLength" : 23592,
            "byteOffset" : 23592
        },
        {
            "buffer" : 0,
            "byteLength" : 15728,
            "byteOffset" : 47184
        },
        {
            "buffer" : 0,
            "byteLength" : 5808,
            "byteOffset" : 62912
        },
        {
            "buffer" : 0,
            "byteLength" : 23724,
            "byteOffset" : 68720
        },
        {
            "buffer" : 0,
            "byteLength" : 23724,
            "byteOffset" : 92444
        },
        {
            "buffer" : 0,
            "byteLength" : 15816,
            "byteOffset" : 116168
        },
        {
            "buffer" : 0,
            "byteLength" : 5808,
            "byteOffset" : 131984
        }
    ],
    "samplers" : [
        {
            "magFilter" : 9729,
            "minFilter" : 9987
        }
    ],
    "buffers" : [
        {
            "byteLength" : 137792,
            "uri" : "monky.bin"
        }
    ]
}
